<svg fill="#000000" xmlns="http://www.w3.org/2000/svg"  viewBox="0 0 32 32" width="32px" height="32px"><path d="M 18 7 L 10 8 L 4 12 L 5 12 L 5 22 L 6 22 L 6 12 L 8.011719 12 C 7.902344 12.070313 8.238281 14.199219 8.320313 14.195313 L 12.765625 15.261719 L 16.015625 11.589844 C 16.015625 11.589844 15.71875 10.359375 15.050781 9.460938 Z M 22.5 11 C 20.929688 11 19.507813 11.675781 18.503906 12.742188 C 18.242188 12.46875 17.773438 12.078125 17 12 L 15 14.28125 C 16.230469 14.648438 17 15.53125 17 16.5 L 17 24 L 20 24 L 20 16.5 C 20 15.101563 21.101563 14 22.5 14 C 23.898438 14 25 15.101563 25 16.5 L 25 24 L 28 24 L 28 16.5 C 28 13.480469 25.519531 11 22.5 11 Z M 8.972656 15.40625 C 8.949219 15.601563 9 24 9 24 L 12 24 L 11.996094 16.34375 Z"/></svg>